<?xml version="1.0" encoding="UTF-8"?>
<svg clip-rule="evenodd" fill-rule="evenodd" stroke-linejoin="round" stroke-miterlimit="2" style="" version="1.1" viewBox="0 0 9 11.25" xml:space="preserve" xmlns="http://www.w3.org/2000/svg"><path d="m7 0h-5v1h-1v1h-1v5h1v1h1v1h5v-1h1v-1h1v-5h-1v-1h-1v-1zm0 2v-1h-1v1h-1v-1h-1v1h-1v-1h-1v1h-1v1h1v-1h1v1h3v-1h1zm0 1v-1h1v1h-1zm-1 1h-3v1h3v-1zm-4 0h-1v1h1v-1zm5 0h1v1h-1v-1zm0 3v-1h1v1h-1zm-1 0h1v1h-1v-1zm-3 0v-1h3v1h-1v1h-1v-1h-1zm-1 0v-1h-1v1h1zm0 0h1v1h-1v-1z"/><text y="24" fill="#000000" font-family="'Helvetica Neue', Helvetica, Arial-Unicode, Arial, Sans-serif" font-size="5px" font-weight="bold">Created by Piero Borgo</text><text y="29" fill="#000000" font-family="'Helvetica Neue', Helvetica, Arial-Unicode, Arial, Sans-serif" font-size="5px" font-weight="bold">from the Noun Project</text></svg>
